<svg width="124" height="188" fill="none" xmlns="http://www.w3.org/2000/svg"><path d="M112.152 67.265c-4.935-2.223-10.715.028-12.909 5.028l-13.19 30.938h-3.128v-74.73c0-5.472-4.379-9.908-9.78-9.908-5.4 0-9.779 4.435-9.779 9.907V14.597c0-5.472-4.378-9.908-9.779-9.908-5.4 0-9.78 4.436-9.78 9.908V28.5c0-5.471-4.377-9.907-9.778-9.907-5.401 0-9.78 4.435-9.78 9.907v23.441c0-5.471-4.377-9.907-9.779-9.907-5.4 0-9.779 4.435-9.779 9.907V123.023c0 11.305 7.007 20.946 16.858 24.725v83.815h57.422v-83.816c7.322-2.808 13.07-8.857 15.54-16.419l.067.011 9.345-20.945 13.19-30.051c2.195-5-.026-10.855-4.961-13.078Z" fill="#FFCAB9"/><path d="M38.353 28.5a9.936 9.936 0 0 1 2.728-6.854 9.801 9.801 0 0 0-2.728-2.023V28.5Z" fill="#FABBA7"/><path d="M23.21 143.303c-8.271-3.172-13.828-11.322-13.828-20.28v-12.532c0-6.143-9.38-6.143-9.38 0v12.532c0 11.757 6.655 22.546 16.858 27.81v82.605c0 2.624 2.1 4.751 4.69 4.751 2.59 0 4.69-2.127 4.69-4.751v-85.691c0-1.975-1.206-3.744-3.03-4.444Z" fill="#000"/><path d="M121.684 71.058c-1.386-3.655-4.095-6.544-7.626-8.134-7.205-3.245-15.96.284-19.12 7.484l-7.323 17.176V28.5c.199-10.035-10.4-17.41-19.558-13.722-1.114-19.712-28.153-19.695-28.938 0-9.16-3.686-19.756 3.686-19.558 13.723v9.718C10.407 34.535-.199 41.905.003 51.942v34.791c0 6.144 9.38 6.144 9.38 0V51.941c.261-6.836 9.923-6.824 10.178 0v33.046c0 6.143 9.38 6.143 9.38 0V28.5c.251-6.819 9.92-6.839 10.178 0v46.207c0 6.143 9.38 6.143 9.38 0v-60.11c0-2.843 2.283-5.156 5.09-5.156 2.806 0 5.088 2.312 5.088 5.155v60.11c0 6.144 9.38 6.144 9.38 0V28.5c0-2.843 2.284-5.156 5.09-5.156 2.807 0 5.09 2.313 5.09 5.156v70.095C64.391 99.85 53.56 111.64 53.56 125.75c0 6.143 9.38 6.143 9.38 0 0-13.322 11.906-18.237 23.115-17.766a4.691 4.691 0 0 0 4.306-2.868l13.17-30.893c1.526-2.75 3.765-3.623 6.717-2.615 2.716 1.545 3.577 3.814 2.582 6.805-7.397 16.854-22.674 51.349-22.674 51.349-2.162 6.225-6.963 11.287-12.843 13.542a4.75 4.75 0 0 0-3.03 4.444v83.815c0 2.624 2.1 4.751 4.69 4.751 2.591 0 4.69-2.127 4.69-4.751v-80.738c6.972-3.63 12.551-10.045 15.27-17.708 7.551-16.921 15.02-33.876 22.468-50.843a14.743 14.743 0 0 0 .283-11.216Z" fill="#000"/></svg>