<svg width="124" height="188" viewBox="0 0 124 188" fill="none" xmlns="http://www.w3.org/2000/svg">
<path d="M112.152 67.2653C107.217 65.0422 101.437 67.2932 99.243 72.2925L86.0532 103.231H82.9246V83.4479V78.0609V28.5002C82.9246 23.029 78.5465 18.5929 73.1454 18.5929C67.7443 18.5929 63.3662 23.0283 63.3662 28.5002V14.5965C63.3662 9.12527 58.9882 4.68921 53.5871 4.68921C48.1866 4.68921 43.8079 9.12463 43.8079 14.5965V28.5002C43.8079 23.029 39.4299 18.5929 34.0287 18.5929C28.6276 18.5929 24.2496 23.0283 24.2496 28.5002V51.9412C24.2496 46.47 19.8715 42.0339 14.4704 42.0339C9.06993 42.0339 4.69125 46.4694 4.69125 51.9412V78.0609V78.4942V123.023C4.69125 134.328 11.6976 143.969 21.5493 147.748V231.563H78.9711V147.747C86.2933 144.939 92.0409 138.89 94.511 131.328L94.5779 131.339L103.923 110.394L117.113 80.3429C119.308 75.3436 117.087 69.4884 112.152 67.2653Z" fill="#FFCAB9"/>
<path d="M38.3531 28.5001C38.3531 25.838 39.3949 23.4267 41.0808 21.6464C40.2985 20.8203 39.3761 20.1361 38.3531 19.6235V28.5001Z" fill="#FABBA7"/>
<path d="M23.2103 143.303C14.9388 140.131 9.382 131.981 9.382 123.023V110.491C9.382 104.348 0.00180817 104.348 0.00180817 110.491V123.023C0.00180817 134.78 6.65674 145.569 16.8599 150.833V233.438C16.8599 236.062 18.9592 238.189 21.55 238.189C24.1408 238.189 26.2401 236.062 26.2401 233.438V147.747C26.2401 145.772 25.0338 144.003 23.2103 143.303Z" fill="black"/>
<path d="M121.684 71.0582C120.298 67.4033 117.589 64.5144 114.058 62.9236C106.853 59.6792 98.0978 63.208 94.9373 70.4082L87.6151 87.5841V28.5001C87.814 18.4648 77.2156 11.0897 68.0568 14.7776C66.9431 -4.93441 39.9037 -4.91731 39.1189 14.7776C29.9582 11.0923 19.363 18.4642 19.5612 28.5007V38.2192C10.4067 34.5346 -0.199754 41.9046 0.00285859 51.9418V86.7333C0.00285859 92.8767 9.38305 92.8767 9.38305 86.7333V51.9411C9.64445 45.1046 19.3061 45.1172 19.5612 51.9411V84.9866C19.5612 91.1301 28.9414 91.1301 28.9414 84.9866C28.9414 66.1578 28.9414 47.3289 28.9414 28.5001C29.1921 21.6813 38.8606 21.661 39.1189 28.5001V74.7068C39.1189 80.8502 48.4991 80.8502 48.4991 74.7068V14.5964C48.4991 11.7537 50.7816 9.44064 53.5882 9.44064C56.3947 9.44064 58.6772 11.7531 58.6772 14.5964V74.7068C58.6772 80.8502 68.0574 80.8502 68.0574 74.7068V28.5001C68.0574 25.6574 70.3406 23.3443 73.1471 23.3443C75.9537 23.3443 78.2362 25.6568 78.2362 28.5001V98.5951C64.3923 99.8489 53.56 111.64 53.56 125.75C53.56 131.893 62.9402 131.893 62.9402 125.75C62.9402 112.428 74.8456 107.513 86.0549 107.984C87.9259 107.984 89.6187 106.856 90.361 105.116L103.531 74.2234C105.057 71.4726 107.296 70.6002 110.248 71.6075C112.964 73.1533 113.825 75.4221 112.83 78.413C105.433 95.2671 90.1565 129.762 90.1565 129.762C87.9941 135.987 83.1927 141.049 77.3132 143.304C75.4897 144.004 74.2834 145.772 74.2834 147.748V231.563C74.2834 234.187 76.3827 236.314 78.9735 236.314C81.5643 236.314 83.6636 234.187 83.6636 231.563V150.825C90.6349 147.195 96.2143 140.78 98.9339 133.117C106.484 116.196 113.953 99.2413 121.401 82.2738C122.97 78.6962 123.071 74.7131 121.684 71.0582Z" fill="black"/>
</svg>
