<svg width="104" height="177" fill="none" xmlns="http://www.w3.org/2000/svg"><path d="M80.686 229.242V104.346C90.751 100.56 97.91 90.897 97.91 79.569v-45.06H4.795v45.06c0 11.328 7.158 20.991 17.223 24.777v124.896h58.668Z" fill="#FFCAB9"/><path d="M14.786 44.873c-5.519 0-9.992-4.445-9.992-9.929v-9.468c0-5.483 4.473-9.928 9.992-9.928 5.518 0 9.991 4.445 9.991 9.928v9.468c0 5.484-4.473 9.929-9.991 9.929Z" fill="#FABBA7"/><path d="M34.769 44.873c-5.519 0-9.992-4.445-9.992-9.929V14.683c0-5.484 4.473-9.929 9.992-9.929 5.518 0 9.991 4.445 9.991 9.929v20.261c0 5.484-4.473 9.929-9.991 9.929ZM54.751 44.873c-5.518 0-9.991-4.445-9.991-9.929V14.683c0-5.484 4.473-9.929 9.991-9.929 5.519 0 9.992 4.445 9.992 9.929v20.261c0 5.484-4.474 9.929-9.992 9.929ZM74.734 44.873c-5.518 0-9.991-4.445-9.991-9.929V14.683c0-5.484 4.473-9.929 9.991-9.929s9.992 4.445 9.992 9.929v20.261c0 5.484-4.474 9.929-9.992 9.929Z" fill="#FABBA7"/><path d="M97.91 79.569V34.944c0-5.484-4.473-9.929-9.991-9.929H54.75c-5.518 0-9.991 4.445-9.991 9.929 0 5.483 4.473 9.928 9.991 9.928h23.176v14.862c-9.256 1.704-18.413 10.381-18.413 22.567" fill="#FFCAB9"/><path d="M89.517 20.34v-5.657C89.559 1.943 74.02-4.73 64.743 3.867c-5.395-5.127-14.59-5.126-19.982 0-8.374-7.773-22.367-3.144-24.495 7.97-9.38-3.94-20.478 3.46-20.263 13.64v54.092c0 11.782 6.8 22.594 17.223 27.87l1.697 119.86c0 2.629 2.145 4.761 4.792 4.761s4.791-2.132 4.791-4.761L26.81 104.346a4.763 4.763 0 0 0-3.095-4.453C15.265 96.714 9.587 88.546 9.587 79.57V48.694c5.024 2 11.408.687 15.19-2.934 5.395 5.127 14.59 5.127 19.983 0a14.777 14.777 0 0 0 9.991 3.875h18.384v6.49C63.624 59.578 54.722 69.082 54.722 82.3c0 2.63 2.145 4.762 4.792 4.762s4.792-2.132 4.792-4.762c0-9.883 7.467-16.591 14.494-17.884a4.77 4.77 0 0 0 3.92-4.683V44.872c0-2.63-2.146-4.761-4.793-4.761H54.751c-2.867 0-5.2-2.319-5.2-5.167 0-2.85 2.333-5.167 5.2-5.167H87.92c2.867 0 5.2 2.317 5.2 5.167v44.625c0 8.977-5.679 17.144-14.129 20.324a4.763 4.763 0 0 0-3.095 4.453l1.696 122.953c0 2.629 2.145 4.761 4.792 4.761s4.792-2.132 4.792-4.761l-1.696-119.86c10.424-5.276 17.223-16.088 17.223-27.87V34.944c0-7.564-5.783-13.809-13.185-14.604ZM74.733 9.516c2.867 0 5.2 2.317 5.2 5.167v5.57H69.534v-5.57c0-2.85 2.332-5.167 5.2-5.167ZM14.786 40.11c-2.867 0-5.2-2.318-5.2-5.167v-9.468c.262-6.847 10.14-6.841 10.399 0v9.468c0 2.85-2.332 5.167-5.2 5.167Zm19.983 0c-2.867 0-5.2-2.318-5.2-5.167V14.683c.262-6.846 10.14-6.842 10.399 0v20.26c0 2.85-2.332 5.168-5.199 5.168Zm14.783-18.917v-6.51c.262-6.847 10.139-6.842 10.398 0v5.57h-5.2c-1.828 0-3.58.333-5.198.94Z" fill="#000"/></svg>