<svg width="104" height="177" viewBox="0 0 104 177" fill="none" xmlns="http://www.w3.org/2000/svg">
<path d="M80.6861 229.242V104.346C90.7509 100.56 97.9093 90.8972 97.9093 79.5686V34.5095H4.7949V79.5686C4.7949 90.8972 11.9533 100.56 22.0182 104.346V229.242H80.6861Z" fill="#FFCAB9"/>
<path d="M14.7856 44.8727C9.26729 44.8727 4.79421 40.4277 4.79421 34.944V25.4763C4.79421 19.9926 9.26729 15.5476 14.7856 15.5476C20.304 15.5476 24.7771 19.9926 24.7771 25.4763V34.944C24.7771 40.4277 20.304 44.8727 14.7856 44.8727Z" fill="#FABBA7"/>
<path d="M34.7685 44.8727C29.2502 44.8727 24.7771 40.4277 24.7771 34.944V14.6828C24.7771 9.19914 29.2502 4.75415 34.7685 4.75415C40.2869 4.75415 44.76 9.19914 44.76 14.6828V34.944C44.76 40.4277 40.2869 44.8727 34.7685 44.8727Z" fill="#FABBA7"/>
<path d="M54.7512 44.8727C49.2328 44.8727 44.7597 40.4277 44.7597 34.944V14.6828C44.7597 9.19914 49.2328 4.75415 54.7512 4.75415C60.2695 4.75415 64.7426 9.19914 64.7426 14.6828V34.944C64.7426 40.4277 60.2689 44.8727 54.7512 44.8727Z" fill="#FABBA7"/>
<path d="M74.7341 44.8727C69.2157 44.8727 64.7426 40.4277 64.7426 34.944V14.6828C64.7426 9.19914 69.2157 4.75415 74.7341 4.75415C80.2524 4.75415 84.7255 9.19914 84.7255 14.6828V34.944C84.7255 40.4277 80.2518 44.8727 74.7341 44.8727Z" fill="#FABBA7"/>
<path d="M97.9103 79.5689V34.9438C97.9103 29.4601 93.4372 25.0151 87.9188 25.0151H54.7512C49.2328 25.0151 44.7597 29.4601 44.7597 34.9438C44.7597 40.4275 49.2328 44.8725 54.7512 44.8725H77.9274V59.7344C68.6713 61.4379 59.5137 70.1151 59.5137 82.3009" fill="#FFCAB9"/>
<path d="M89.5166 20.3403V14.6827C89.5588 1.94336 74.0203 -4.73012 64.7426 3.86711C59.3476 -1.26037 50.1536 -1.2591 44.7605 3.86711C36.3868 -3.90601 22.3939 0.723077 20.2663 11.8371C10.8851 7.89622 -0.21223 15.2973 0.0030849 25.4767V79.5686C0.0030849 91.3511 6.80244 102.163 17.2264 107.439L18.9227 227.299C18.9227 229.928 21.0675 232.06 23.7146 232.06C26.3616 232.06 28.5064 229.928 28.5064 227.299L26.8101 104.346C26.8101 102.367 25.5777 100.594 23.7146 99.8931C15.2643 96.7141 9.58684 88.5461 9.58684 79.5686V48.6938C14.6113 50.6938 20.9947 49.3814 24.7771 45.76C30.1721 50.8874 39.3667 50.8868 44.7598 45.76C47.3928 48.1637 50.9017 49.6348 54.7512 49.6348H73.1348V56.1247C63.6239 59.578 54.7218 69.0825 54.7218 82.3012C54.7218 84.931 56.8667 87.063 59.5137 87.063C62.1607 87.063 64.3056 84.931 64.3056 82.3012C64.3056 72.4176 71.7732 65.7099 78.8 64.4166C81.0714 63.9982 82.7192 62.03 82.7192 59.7342V44.8724C82.7192 42.2426 80.5743 40.1106 77.9273 40.1106H54.7512C51.8844 40.1106 49.5517 37.7925 49.5517 34.9437C49.5517 32.0949 51.8838 29.7769 54.7512 29.7769H87.9187C90.7855 29.7769 93.1182 32.0943 93.1182 34.9437V79.5686C93.1182 88.5461 87.4401 96.7135 78.9904 99.8931C77.1274 100.594 75.8949 102.367 75.8949 104.346L77.5912 227.299C77.5912 229.928 79.7361 232.06 82.3831 232.06C85.0301 232.06 87.175 229.928 87.175 227.299L85.4787 107.439C95.9026 102.163 102.702 91.3511 102.702 79.5686V34.9437C102.702 27.3801 96.9191 21.1352 89.5166 20.3403ZM74.7333 9.51585C77.6002 9.51585 79.9328 11.8333 79.9328 14.6827V20.2533H69.5345V14.6827C69.5345 11.8339 71.8665 9.51585 74.7333 9.51585ZM14.7857 40.1106C11.9189 40.1106 9.5862 37.7932 9.5862 34.9437V34.5095V25.4761C9.84815 18.6293 19.7252 18.635 19.9846 25.4761V34.9437C19.9852 37.7932 17.6532 40.1106 14.7857 40.1106ZM34.7691 40.1106C31.9023 40.1106 29.569 37.7932 29.569 34.9437V25.4761V14.6827C29.8309 7.83653 39.7086 7.84098 39.968 14.6827V34.9437C39.968 37.7932 37.6359 40.1106 34.7691 40.1106ZM49.5517 21.1943V14.6833C49.8137 7.83652 59.6907 7.84223 59.9501 14.6833V20.254H54.7506C52.922 20.2533 51.1701 20.5873 49.5517 21.1943Z" fill="black"/>
</svg>
