<svg width="103" height="183" viewBox="0 0 103 183" fill="none" xmlns="http://www.w3.org/2000/svg">
<path d="M79.9269 230.242V147.429C89.897 143.646 96.988 133.992 96.988 122.673V77.6545H4.74975V122.673C4.74975 133.992 11.8407 143.646 21.8108 147.429V230.242H79.9269Z" fill="#FFCAB9"/>
<path d="M58.0268 82.7203C52.6516 83.7136 47.4902 80.1518 46.4985 74.7644L35.7733 16.4782C34.7822 11.0908 38.3359 5.91777 43.7112 4.92377C49.0864 3.93039 54.2478 7.4922 55.2395 12.8796L65.9647 71.1658C66.9565 76.5539 63.4021 81.7269 58.0268 82.7203Z" fill="#FABBA7"/>
<path d="M69.5082 81.8742C64.2494 80.3785 61.197 74.8933 62.6887 69.6232L78.8328 12.6057C80.3252 7.33565 85.7979 4.27561 91.0561 5.77074C96.3143 7.26651 99.3674 12.7516 97.8756 18.0217L81.7315 75.0392C80.2398 80.31 74.767 83.37 69.5082 81.8742Z" fill="#FABBA7"/>
<path d="M14.6471 88.0086C9.18071 88.0086 4.74975 83.5676 4.74975 78.0888V68.6295C4.74975 63.1507 9.18071 58.7097 14.6471 58.7097C20.1135 58.7097 24.5444 63.1507 24.5444 68.6295V78.0888C24.5444 83.5676 20.1135 88.0086 14.6471 88.0086Z" fill="#FABBA7"/>
<path d="M34.4418 88.0084C28.9754 88.0084 24.5445 83.5674 24.5445 78.0886V57.8456C24.5445 52.3668 28.9754 47.9258 34.4418 47.9258C39.9082 47.9258 44.3392 52.3668 44.3392 57.8456V78.0886C44.3392 83.5674 39.9082 88.0084 34.4418 88.0084Z" fill="#FABBA7"/>
<path d="M96.9889 122.674V78.0885C96.9889 72.6097 92.558 68.1687 87.0916 68.1687H54.2363C48.7699 68.1687 44.3389 72.6097 44.3389 78.0885C44.3389 83.5673 48.7699 88.0083 54.2363 88.0083H77.1942V102.857C68.0254 104.559 58.9539 113.228 58.9539 125.403" fill="#FFCAB9"/>
<path d="M92.352 1.19443C84.7174 -0.977534 76.4093 3.73621 74.2669 11.307L65.4848 42.3241L59.9083 12.0175C58.4438 4.05846 50.7876 -1.22429 42.851 0.245462C34.91 1.71331 29.6418 9.38242 31.1057 17.3414L35.8708 43.24C28.6203 42.5327 21.4887 47.8206 20.0761 55.0031C10.7832 51.0658 -0.210232 58.4596 0.00305569 68.6305V122.674C0.00305569 134.446 6.73836 145.248 17.0641 150.519V230.243C17.0641 232.87 19.1888 235 21.8109 235C24.433 235 26.5576 232.87 26.5576 230.243V147.429C26.5576 145.451 25.3368 143.68 23.4912 142.98C15.1205 139.804 9.49656 131.643 9.49656 122.673V91.8263C14.4737 93.8251 20.7976 92.5126 24.5444 88.895C29.888 94.0179 38.996 94.0166 44.3383 88.895C46.9465 91.2966 50.423 92.7663 54.2356 92.7663H72.4467V99.2505C63.0247 102.701 54.2065 112.197 54.2065 125.403C54.2065 128.031 56.3312 130.161 58.9533 130.161C61.5754 130.161 63.7 128.031 63.7 125.403C63.7 115.529 71.0974 108.827 78.0586 107.535C80.3086 107.118 81.9408 105.15 81.9408 102.857V88.0082C81.9408 85.3808 79.8162 83.2507 77.1941 83.2507H54.2363C47.4231 82.9969 47.406 73.187 54.2363 72.9263C65.188 72.9263 76.1397 72.9275 87.0914 72.9263C89.9312 72.9263 92.2419 75.2416 92.2419 78.0885V122.673C92.2419 131.643 86.6173 139.803 78.2472 142.98C76.4017 143.68 75.1808 145.451 75.1808 147.429V172.623C75.1808 175.25 77.3055 177.38 79.9276 177.38C82.5497 177.38 84.6743 175.25 84.6743 172.623V150.519C95.0001 145.247 101.735 134.445 101.735 122.673V78.0885C101.735 70.9516 96.626 64.992 89.8818 63.6821L102.442 19.3205C104.646 11.5341 100.12 3.40255 92.352 1.19443ZM14.6471 83.2507C11.8073 83.2507 9.49656 80.9354 9.49656 78.0885V77.6546V68.6293C9.75605 61.7886 19.5407 61.7943 19.7976 68.6293V78.0885C19.7983 80.9354 17.4869 83.2507 14.6471 83.2507ZM39.5922 78.0885C39.3359 84.9221 29.5513 84.9304 29.2918 78.0885V68.6293V57.8456C29.5475 51.0125 39.3327 51.0036 39.5922 57.8456V78.0885ZM49.0857 64.3513V57.8462C49.0857 54.9251 48.2262 52.2032 46.7529 49.9139L40.4422 15.616C39.927 12.8167 41.7795 10.1195 44.5725 9.60317C47.3655 9.08746 50.0566 10.9442 50.5718 13.7435L59.7109 63.4119H54.2363C52.4243 63.4112 50.6889 63.7449 49.0857 64.3513ZM93.3096 16.7229L80.0902 63.4112H69.3816L83.3997 13.904C84.5402 10.9575 86.6604 9.7719 89.7609 10.3479C92.4925 11.1243 94.0849 13.9845 93.3096 16.7229Z" fill="black"/>
</svg>
